<svg width="375" height="812" viewBox="0 0 375 812" fill="none" xmlns="http://www.w3.org/2000/svg">
<g clip-path="url(#clip0_292_4936)">
<rect width="375" height="812" fill="#101115"/>
<g clip-path="url(#clip1_292_4936)">
<g filter="url(#filter0_f_292_4936)">
<path d="M-130.009 649.946C-191.196 462.997 -175.659 290.126 -95.3077 263.828C-52.4259 249.793 0.247173 280.342 49.3502 340.299C31.8498 328.417 15.1199 324.011 0.523851 328.788C-50.8683 345.608 -56.3213 469.875 -11.6555 606.347C33.0104 742.819 110.881 839.816 162.273 822.996C179.525 817.349 191.6 799.594 198.34 773.333C197.607 861.179 172.813 925.596 126.268 940.83C45.9163 967.128 -68.8229 836.895 -130.009 649.946Z" fill="#76F6F5"/>
<path d="M-19.9726 683.82C-77.2415 508.841 -62.6996 347.038 12.5074 322.424C52.6436 309.287 101.944 337.88 147.903 393.998C131.523 382.878 115.864 378.753 102.203 383.225C54.1011 398.968 48.9981 515.279 90.8041 643.013C132.61 770.748 205.494 861.534 253.596 845.792C269.744 840.506 281.046 823.887 287.354 799.307C286.668 881.529 263.463 941.822 219.897 956.081C144.69 980.695 37.2965 858.8 -19.9726 683.82Z" fill="#B541FA"/>
<path d="M54.2143 684.342C3.31995 528.84 16.2428 385.047 83.0786 363.172C128.002 348.47 185.847 392.59 234.402 470.32C209.467 449.707 182.305 441.014 158.172 448.913C107.275 465.571 89.1335 549.713 117.652 636.849C146.171 723.984 210.55 781.117 261.447 764.459C292.391 754.332 311.227 719.261 314.831 673.738C342.07 800.911 324.224 907.693 267.383 926.297C200.547 948.171 105.109 839.845 54.2143 684.342Z" fill="#8361FD"/>
</g>
<rect x="-1" y="343" width="376" height="469" fill="url(#paint0_linear_292_4936)"/>
</g>
<path d="M93.0352 631.5V603.316H98.8555L107.488 624.859H107.625L116.258 603.316H122.078V631.5H117.547V611.441H115.223L120.359 604.098L109.266 631.5H105.848L94.7539 604.098L99.8906 611.441H97.5664V631.5H93.0352ZM126.707 631.5V610.797H131.57V631.5H126.707ZM129.129 607.828C128.374 607.828 127.736 607.568 127.215 607.047C126.694 606.526 126.434 605.901 126.434 605.172C126.434 604.43 126.694 603.805 127.215 603.297C127.736 602.776 128.374 602.516 129.129 602.516C129.897 602.516 130.542 602.776 131.062 603.297C131.583 603.805 131.844 604.43 131.844 605.172C131.844 605.901 131.583 606.526 131.062 607.047C130.542 607.568 129.897 607.828 129.129 607.828ZM135.848 631.5V603.316H140.711V631.5H135.848ZM153.953 631.91C151.883 631.91 150.099 631.474 148.602 630.602C147.117 629.729 145.978 628.492 145.184 626.891C144.389 625.289 143.992 623.395 143.992 621.207V621.188C143.992 619.013 144.389 617.118 145.184 615.504C145.991 613.876 147.117 612.613 148.562 611.715C150.021 610.816 151.74 610.367 153.719 610.367C155.685 610.367 157.384 610.803 158.816 611.676C160.262 612.535 161.368 613.746 162.137 615.309C162.918 616.871 163.309 618.694 163.309 620.777V622.34H146.395V619.098H160.984L158.641 622.125V620.25C158.641 618.896 158.432 617.77 158.016 616.871C157.599 615.973 157.026 615.302 156.297 614.859C155.568 614.404 154.728 614.176 153.777 614.176C152.814 614.176 151.954 614.41 151.199 614.879C150.457 615.335 149.871 616.018 149.441 616.93C149.025 617.841 148.816 618.948 148.816 620.25V622.125C148.816 623.388 149.025 624.469 149.441 625.367C149.871 626.253 150.477 626.936 151.258 627.418C152.039 627.887 152.97 628.121 154.051 628.121C154.858 628.121 155.568 627.997 156.18 627.75C156.792 627.49 157.293 627.158 157.684 626.754C158.087 626.35 158.367 625.914 158.523 625.445L158.562 625.309H163.094L163.055 625.523C162.885 626.318 162.573 627.099 162.117 627.867C161.661 628.622 161.049 629.306 160.281 629.918C159.513 630.53 158.602 631.018 157.547 631.383C156.492 631.734 155.294 631.91 153.953 631.91ZM174.5 631.91C172.69 631.91 171.141 631.643 169.852 631.109C168.576 630.576 167.573 629.827 166.844 628.863C166.128 627.887 165.691 626.76 165.535 625.484L165.516 625.309H170.301L170.34 625.484C170.522 626.383 170.952 627.079 171.629 627.574C172.319 628.069 173.283 628.316 174.52 628.316C175.314 628.316 175.991 628.219 176.551 628.023C177.111 627.828 177.54 627.542 177.84 627.164C178.152 626.786 178.309 626.344 178.309 625.836V625.816C178.309 625.204 178.1 624.71 177.684 624.332C177.267 623.941 176.518 623.622 175.438 623.375L172 622.613C170.685 622.314 169.585 621.904 168.699 621.383C167.814 620.862 167.15 620.217 166.707 619.449C166.264 618.668 166.043 617.763 166.043 616.734V616.715C166.043 615.452 166.388 614.345 167.078 613.395C167.768 612.444 168.738 611.702 169.988 611.168C171.238 610.634 172.69 610.367 174.344 610.367C176.062 610.367 177.534 610.654 178.758 611.227C179.982 611.799 180.926 612.568 181.59 613.531C182.267 614.495 182.632 615.576 182.684 616.773L182.703 616.988H178.172L178.152 616.832C178.048 615.999 177.671 615.315 177.02 614.781C176.368 614.234 175.477 613.961 174.344 613.961C173.628 613.961 173.003 614.065 172.469 614.273C171.948 614.482 171.544 614.775 171.258 615.152C170.984 615.53 170.848 615.973 170.848 616.48V616.5C170.848 616.891 170.945 617.242 171.141 617.555C171.336 617.867 171.648 618.141 172.078 618.375C172.508 618.596 173.081 618.792 173.797 618.961L177.234 619.723C179.383 620.204 180.913 620.895 181.824 621.793C182.736 622.678 183.191 623.87 183.191 625.367V625.387C183.191 626.689 182.82 627.835 182.078 628.824C181.336 629.801 180.307 630.562 178.992 631.109C177.69 631.643 176.193 631.91 174.5 631.91ZM193.973 631.91C191.824 631.91 190.223 631.441 189.168 630.504C188.126 629.566 187.605 628.03 187.605 625.895V614.547H184.676V610.797H187.605V605.543H192.547V610.797H196.395V614.547H192.547V625.504C192.547 626.507 192.768 627.203 193.211 627.594C193.667 627.971 194.331 628.16 195.203 628.16C195.451 628.16 195.665 628.154 195.848 628.141C196.043 628.115 196.225 628.095 196.395 628.082V631.734C196.108 631.773 195.757 631.812 195.34 631.852C194.936 631.891 194.48 631.91 193.973 631.91ZM208.504 631.91C206.473 631.91 204.708 631.48 203.211 630.621C201.714 629.749 200.548 628.512 199.715 626.91C198.895 625.296 198.484 623.375 198.484 621.148V621.109C198.484 618.896 198.901 616.988 199.734 615.387C200.568 613.772 201.733 612.535 203.23 611.676C204.728 610.803 206.479 610.367 208.484 610.367C210.503 610.367 212.26 610.803 213.758 611.676C215.268 612.535 216.44 613.766 217.273 615.367C218.107 616.969 218.523 618.883 218.523 621.109V621.148C218.523 623.388 218.107 625.315 217.273 626.93C216.453 628.531 215.294 629.762 213.797 630.621C212.299 631.48 210.535 631.91 208.504 631.91ZM208.523 627.984C209.552 627.984 210.444 627.717 211.199 627.184C211.954 626.65 212.534 625.875 212.938 624.859C213.354 623.831 213.562 622.594 213.562 621.148V621.109C213.562 619.677 213.354 618.453 212.938 617.438C212.521 616.422 211.928 615.647 211.16 615.113C210.405 614.579 209.513 614.312 208.484 614.312C207.482 614.312 206.596 614.579 205.828 615.113C205.073 615.647 204.48 616.422 204.051 617.438C203.634 618.453 203.426 619.677 203.426 621.109V621.148C203.426 622.594 203.634 623.831 204.051 624.859C204.48 625.875 205.073 626.65 205.828 627.184C206.596 627.717 207.495 627.984 208.523 627.984ZM221.648 631.5V610.797H226.492V614.039H226.609C227.143 612.919 227.938 612.027 228.992 611.363C230.06 610.699 231.375 610.367 232.938 610.367C235.216 610.367 236.974 611.057 238.211 612.438C239.461 613.818 240.086 615.706 240.086 618.102V631.5H235.223V619.078C235.223 617.607 234.878 616.474 234.188 615.68C233.497 614.872 232.462 614.469 231.082 614.469C230.158 614.469 229.35 614.684 228.66 615.113C227.97 615.53 227.436 616.116 227.059 616.871C226.681 617.613 226.492 618.486 226.492 619.488V631.5H221.648ZM253.094 631.91C251.023 631.91 249.24 631.474 247.742 630.602C246.258 629.729 245.118 628.492 244.324 626.891C243.53 625.289 243.133 623.395 243.133 621.207V621.188C243.133 619.013 243.53 617.118 244.324 615.504C245.132 613.876 246.258 612.613 247.703 611.715C249.161 610.816 250.88 610.367 252.859 610.367C254.826 610.367 256.525 610.803 257.957 611.676C259.402 612.535 260.509 613.746 261.277 615.309C262.059 616.871 262.449 618.694 262.449 620.777V622.34H245.535V619.098H260.125L257.781 622.125V620.25C257.781 618.896 257.573 617.77 257.156 616.871C256.74 615.973 256.167 615.302 255.438 614.859C254.708 614.404 253.868 614.176 252.918 614.176C251.954 614.176 251.095 614.41 250.34 614.879C249.598 615.335 249.012 616.018 248.582 616.93C248.165 617.841 247.957 618.948 247.957 620.25V622.125C247.957 623.388 248.165 624.469 248.582 625.367C249.012 626.253 249.617 626.936 250.398 627.418C251.18 627.887 252.111 628.121 253.191 628.121C253.999 628.121 254.708 627.997 255.32 627.75C255.932 627.49 256.434 627.158 256.824 626.754C257.228 626.35 257.508 625.914 257.664 625.445L257.703 625.309H262.234L262.195 625.523C262.026 626.318 261.714 627.099 261.258 627.867C260.802 628.622 260.19 629.306 259.422 629.918C258.654 630.53 257.742 631.018 256.688 631.383C255.633 631.734 254.435 631.91 253.094 631.91ZM273.641 631.91C271.831 631.91 270.281 631.643 268.992 631.109C267.716 630.576 266.714 629.827 265.984 628.863C265.268 627.887 264.832 626.76 264.676 625.484L264.656 625.309H269.441L269.48 625.484C269.663 626.383 270.092 627.079 270.77 627.574C271.46 628.069 272.423 628.316 273.66 628.316C274.454 628.316 275.132 628.219 275.691 628.023C276.251 627.828 276.681 627.542 276.98 627.164C277.293 626.786 277.449 626.344 277.449 625.836V625.816C277.449 625.204 277.241 624.71 276.824 624.332C276.408 623.941 275.659 623.622 274.578 623.375L271.141 622.613C269.826 622.314 268.725 621.904 267.84 621.383C266.954 620.862 266.29 620.217 265.848 619.449C265.405 618.668 265.184 617.763 265.184 616.734V616.715C265.184 615.452 265.529 614.345 266.219 613.395C266.909 612.444 267.879 611.702 269.129 611.168C270.379 610.634 271.831 610.367 273.484 610.367C275.203 610.367 276.674 610.654 277.898 611.227C279.122 611.799 280.066 612.568 280.73 613.531C281.408 614.495 281.772 615.576 281.824 616.773L281.844 616.988H277.312L277.293 616.832C277.189 615.999 276.811 615.315 276.16 614.781C275.509 614.234 274.617 613.961 273.484 613.961C272.768 613.961 272.143 614.065 271.609 614.273C271.089 614.482 270.685 614.775 270.398 615.152C270.125 615.53 269.988 615.973 269.988 616.48V616.5C269.988 616.891 270.086 617.242 270.281 617.555C270.477 617.867 270.789 618.141 271.219 618.375C271.648 618.596 272.221 618.792 272.938 618.961L276.375 619.723C278.523 620.204 280.053 620.895 280.965 621.793C281.876 622.678 282.332 623.87 282.332 625.367V625.387C282.332 626.689 281.961 627.835 281.219 628.824C280.477 629.801 279.448 630.562 278.133 631.109C276.831 631.643 275.333 631.91 273.641 631.91Z" fill="white"/>
<path d="M112.926 669.5V652.738H107.02V649.771H122.332V652.738H116.439V669.5H112.926ZM127.432 669.787C126.01 669.787 124.775 669.486 123.727 668.885C122.678 668.274 121.863 667.408 121.279 666.287C120.705 665.157 120.418 663.812 120.418 662.254V662.227C120.418 660.677 120.71 659.342 121.293 658.221C121.876 657.09 122.692 656.225 123.74 655.623C124.788 655.012 126.014 654.707 127.418 654.707C128.831 654.707 130.061 655.012 131.109 655.623C132.167 656.225 132.987 657.086 133.57 658.207C134.154 659.328 134.445 660.668 134.445 662.227V662.254C134.445 663.822 134.154 665.171 133.57 666.301C132.996 667.422 132.185 668.283 131.137 668.885C130.089 669.486 128.854 669.787 127.432 669.787ZM127.445 667.039C128.165 667.039 128.79 666.852 129.318 666.479C129.847 666.105 130.253 665.562 130.535 664.852C130.827 664.132 130.973 663.266 130.973 662.254V662.227C130.973 661.224 130.827 660.367 130.535 659.656C130.243 658.945 129.829 658.403 129.291 658.029C128.762 657.656 128.138 657.469 127.418 657.469C126.716 657.469 126.096 657.656 125.559 658.029C125.03 658.403 124.615 658.945 124.314 659.656C124.023 660.367 123.877 661.224 123.877 662.227V662.254C123.877 663.266 124.023 664.132 124.314 664.852C124.615 665.562 125.03 666.105 125.559 666.479C126.096 666.852 126.725 667.039 127.445 667.039ZM144.371 669.5V666.766H150.072C151.367 666.766 152.351 666.506 153.025 665.986C153.709 665.467 154.051 664.71 154.051 663.717V663.689C154.051 663.024 153.891 662.468 153.572 662.021C153.262 661.566 152.798 661.229 152.178 661.01C151.558 660.782 150.788 660.668 149.867 660.668H144.371V658.111H149.307C150.583 658.111 151.553 657.861 152.219 657.359C152.884 656.858 153.217 656.138 153.217 655.199V655.172C153.217 654.324 152.925 653.668 152.342 653.203C151.768 652.738 150.956 652.506 149.908 652.506H144.371V649.771H150.797C152 649.771 153.039 649.977 153.914 650.387C154.798 650.788 155.482 651.357 155.965 652.096C156.457 652.834 156.703 653.704 156.703 654.707V654.734C156.703 655.445 156.539 656.111 156.211 656.73C155.892 657.341 155.45 657.856 154.885 658.275C154.32 658.686 153.686 658.941 152.984 659.041V659.109C153.905 659.191 154.716 659.447 155.418 659.875C156.12 660.303 156.667 660.864 157.059 661.557C157.451 662.24 157.646 663.02 157.646 663.895V663.922C157.646 665.07 157.373 666.064 156.826 666.902C156.279 667.732 155.5 668.374 154.488 668.83C153.486 669.277 152.283 669.5 150.879 669.5H144.371ZM142.607 669.5V649.771H146.135V669.5H142.607ZM166.191 669.787C164.742 669.787 163.493 669.482 162.445 668.871C161.406 668.26 160.609 667.395 160.053 666.273C159.497 665.152 159.219 663.826 159.219 662.295V662.281C159.219 660.759 159.497 659.433 160.053 658.303C160.618 657.163 161.406 656.279 162.418 655.65C163.439 655.021 164.642 654.707 166.027 654.707C167.404 654.707 168.593 655.012 169.596 655.623C170.607 656.225 171.382 657.072 171.92 658.166C172.467 659.26 172.74 660.536 172.74 661.994V663.088H160.9V660.818H171.113L169.473 662.938V661.625C169.473 660.677 169.327 659.889 169.035 659.26C168.743 658.631 168.342 658.161 167.832 657.852C167.322 657.533 166.734 657.373 166.068 657.373C165.394 657.373 164.792 657.537 164.264 657.865C163.744 658.184 163.334 658.663 163.033 659.301C162.742 659.939 162.596 660.714 162.596 661.625V662.938C162.596 663.822 162.742 664.578 163.033 665.207C163.334 665.827 163.758 666.305 164.305 666.643C164.852 666.971 165.503 667.135 166.26 667.135C166.825 667.135 167.322 667.048 167.75 666.875C168.178 666.693 168.529 666.46 168.803 666.178C169.085 665.895 169.281 665.59 169.391 665.262L169.418 665.166H172.59L172.562 665.316C172.444 665.872 172.225 666.419 171.906 666.957C171.587 667.486 171.159 667.964 170.621 668.393C170.083 668.821 169.445 669.163 168.707 669.418C167.969 669.664 167.13 669.787 166.191 669.787ZM187.82 669.842C186.307 669.842 184.986 669.614 183.855 669.158C182.725 668.702 181.832 668.051 181.176 667.203C180.529 666.355 180.164 665.344 180.082 664.168L180.068 663.963H183.432L183.459 664.127C183.559 664.692 183.805 665.18 184.197 665.59C184.589 666 185.104 666.319 185.742 666.547C186.389 666.766 187.123 666.875 187.943 666.875C188.773 666.875 189.488 666.761 190.09 666.533C190.701 666.305 191.17 665.982 191.498 665.562C191.826 665.134 191.99 664.637 191.99 664.072V664.059C191.99 663.32 191.712 662.737 191.156 662.309C190.609 661.88 189.698 661.529 188.422 661.256L186.303 660.818C184.37 660.417 182.921 659.761 181.955 658.85C180.989 657.929 180.506 656.735 180.506 655.268V655.254C180.515 654.087 180.829 653.071 181.449 652.205C182.078 651.33 182.944 650.651 184.047 650.168C185.15 649.676 186.408 649.43 187.82 649.43C189.251 649.43 190.505 649.667 191.58 650.141C192.656 650.615 193.499 651.275 194.109 652.123C194.729 652.971 195.071 653.955 195.135 655.076L195.148 655.309H191.785L191.758 655.131C191.676 654.557 191.462 654.069 191.115 653.668C190.769 653.258 190.313 652.943 189.748 652.725C189.183 652.506 188.531 652.396 187.793 652.396C187.027 652.396 186.362 652.51 185.797 652.738C185.241 652.957 184.808 653.267 184.498 653.668C184.197 654.069 184.047 654.534 184.047 655.062V655.076C184.047 655.769 184.325 656.334 184.881 656.771C185.446 657.2 186.321 657.537 187.506 657.783L189.625 658.221C191.001 658.503 192.122 658.886 192.988 659.369C193.854 659.852 194.492 660.458 194.902 661.188C195.322 661.917 195.531 662.792 195.531 663.812V663.826C195.531 665.048 195.221 666.109 194.602 667.012C193.991 667.914 193.107 668.611 191.949 669.104C190.801 669.596 189.424 669.842 187.82 669.842ZM197.924 669.5V649.771H201.328V657.441H201.396C201.779 656.566 202.349 655.892 203.105 655.418C203.871 654.944 204.792 654.707 205.867 654.707C206.915 654.707 207.822 654.949 208.588 655.432C209.354 655.906 209.946 656.576 210.365 657.441C210.785 658.298 210.994 659.31 210.994 660.477V669.5H207.59V661.146C207.59 660.035 207.321 659.164 206.783 658.535C206.245 657.897 205.489 657.578 204.514 657.578C203.876 657.578 203.315 657.733 202.832 658.043C202.358 658.344 201.989 658.763 201.725 659.301C201.46 659.829 201.328 660.445 201.328 661.146V669.5H197.924ZM218.021 669.746C217.064 669.746 216.217 669.564 215.479 669.199C214.749 668.826 214.18 668.311 213.77 667.654C213.368 666.989 213.168 666.228 213.168 665.371V665.344C213.168 664.478 213.382 663.74 213.811 663.129C214.248 662.509 214.877 662.021 215.697 661.666C216.518 661.301 217.511 661.083 218.678 661.01L224.215 660.668V662.924L219.156 663.238C218.318 663.293 217.675 663.493 217.229 663.84C216.782 664.186 216.559 664.646 216.559 665.221V665.234C216.559 665.827 216.782 666.296 217.229 666.643C217.684 666.98 218.286 667.148 219.033 667.148C219.689 667.148 220.273 667.016 220.783 666.752C221.303 666.488 221.713 666.128 222.014 665.672C222.314 665.216 222.465 664.701 222.465 664.127V659.779C222.465 659.05 222.232 658.476 221.768 658.057C221.312 657.628 220.651 657.414 219.785 657.414C218.983 657.414 218.34 657.587 217.857 657.934C217.374 658.271 217.074 658.708 216.955 659.246L216.928 659.369H213.783L213.797 659.205C213.87 658.348 214.157 657.583 214.658 656.908C215.16 656.225 215.852 655.687 216.736 655.295C217.63 654.903 218.687 654.707 219.908 654.707C221.12 654.707 222.169 654.908 223.053 655.309C223.946 655.71 224.634 656.27 225.117 656.99C225.609 657.71 225.855 658.558 225.855 659.533V669.5H222.465V667.271H222.383C222.109 667.773 221.754 668.21 221.316 668.584C220.879 668.958 220.378 669.245 219.812 669.445C219.257 669.646 218.66 669.746 218.021 669.746ZM228.617 669.5V655.008H232.008V657.51H232.09C232.309 656.635 232.705 655.951 233.279 655.459C233.863 654.958 234.574 654.707 235.412 654.707C235.622 654.707 235.822 654.721 236.014 654.748C236.205 654.775 236.365 654.807 236.492 654.844V657.92C236.355 657.865 236.16 657.82 235.904 657.783C235.658 657.747 235.389 657.729 235.098 657.729C234.46 657.729 233.908 657.861 233.443 658.125C232.979 658.38 232.623 658.758 232.377 659.26C232.131 659.761 232.008 660.372 232.008 661.092V669.5H228.617ZM244.066 669.787C242.617 669.787 241.368 669.482 240.32 668.871C239.281 668.26 238.484 667.395 237.928 666.273C237.372 665.152 237.094 663.826 237.094 662.295V662.281C237.094 660.759 237.372 659.433 237.928 658.303C238.493 657.163 239.281 656.279 240.293 655.65C241.314 655.021 242.517 654.707 243.902 654.707C245.279 654.707 246.468 655.012 247.471 655.623C248.482 656.225 249.257 657.072 249.795 658.166C250.342 659.26 250.615 660.536 250.615 661.994V663.088H238.775V660.818H248.988L247.348 662.938V661.625C247.348 660.677 247.202 659.889 246.91 659.26C246.618 658.631 246.217 658.161 245.707 657.852C245.197 657.533 244.609 657.373 243.943 657.373C243.269 657.373 242.667 657.537 242.139 657.865C241.619 658.184 241.209 658.663 240.908 659.301C240.617 659.939 240.471 660.714 240.471 661.625V662.938C240.471 663.822 240.617 664.578 240.908 665.207C241.209 665.827 241.633 666.305 242.18 666.643C242.727 666.971 243.378 667.135 244.135 667.135C244.7 667.135 245.197 667.048 245.625 666.875C246.053 666.693 246.404 666.46 246.678 666.178C246.96 665.895 247.156 665.59 247.266 665.262L247.293 665.166H250.465L250.438 665.316C250.319 665.872 250.1 666.419 249.781 666.957C249.462 667.486 249.034 667.964 248.496 668.393C247.958 668.821 247.32 669.163 246.582 669.418C245.844 669.664 245.005 669.787 244.066 669.787ZM258.176 669.787C256.954 669.787 255.893 669.486 254.99 668.885C254.097 668.274 253.404 667.404 252.912 666.273C252.429 665.143 252.188 663.803 252.188 662.254V662.24C252.188 660.682 252.434 659.342 252.926 658.221C253.418 657.09 254.111 656.225 255.004 655.623C255.897 655.012 256.95 654.707 258.162 654.707C258.855 654.707 259.488 654.821 260.062 655.049C260.646 655.268 261.161 655.587 261.607 656.006C262.054 656.416 262.414 656.913 262.688 657.496H262.77V649.771H266.16V669.5H262.77V667.039H262.688C262.423 667.613 262.068 668.105 261.621 668.516C261.184 668.917 260.673 669.231 260.09 669.459C259.516 669.678 258.878 669.787 258.176 669.787ZM259.201 666.93C259.903 666.93 260.523 666.738 261.061 666.355C261.598 665.973 262.018 665.43 262.318 664.729C262.619 664.027 262.77 663.202 262.77 662.254V662.24C262.77 661.292 262.615 660.472 262.305 659.779C262.004 659.077 261.585 658.535 261.047 658.152C260.518 657.77 259.903 657.578 259.201 657.578C258.472 657.578 257.839 657.77 257.301 658.152C256.772 658.526 256.362 659.059 256.07 659.752C255.788 660.445 255.646 661.274 255.646 662.24V662.254C255.646 663.211 255.788 664.04 256.07 664.742C256.362 665.444 256.772 665.986 257.301 666.369C257.839 666.743 258.472 666.93 259.201 666.93Z" fill="url(#paint1_linear_292_4936)"/>
<rect width="376.065" height="35" fill="#101115" fill-opacity="0.3"/>
<path d="M140.72 377.619L140.857 376.811C141.882 370.757 143.601 364.841 145.98 359.18L146.4 358.179L147.548 356.081C149.55 352.425 151.957 349.006 154.724 345.889L156.168 344.262C157.068 343.248 158.044 342.304 159.087 341.438L160.599 340.181C162.002 339.016 163.598 338.104 165.315 337.488L166.716 336.985C168.19 336.456 169.77 336.294 171.321 336.512L172.275 336.647C174.151 336.911 175.849 337.897 177.009 339.394C178.611 341.462 178.979 344.231 177.973 346.645L174.4 355.219L173.82 357.307C173.414 358.77 173.397 360.314 173.771 361.785L173.901 362.297C174.227 363.578 174.913 364.739 175.879 365.642C177.283 366.954 179.169 367.623 181.085 367.487L181.907 367.429C183.835 367.293 185.665 366.526 187.114 365.246L187.358 365.031C188.869 363.696 189.93 361.927 190.395 359.965L191.166 356.714C191.402 355.719 191.562 354.708 191.645 353.689L191.948 349.993C192.195 346.986 192.871 344.031 193.956 341.216L194.838 338.928C195.132 338.165 195.513 337.439 195.975 336.765L196.177 336.469C197.602 334.386 199.786 332.943 202.261 332.447C202.885 332.323 203.521 332.26 204.158 332.26L204.432 332.26C207.896 332.26 211.167 333.853 213.302 336.581C213.924 337.377 214.437 338.252 214.826 339.184L218.08 346.98L220.88 354.26L223.44 360.66L226.8 367.7L229.52 372.34L232.96 377.06" stroke="url(#paint2_linear_292_4936)" stroke-width="8" stroke-linecap="round"/>
<path d="M202.16 375.22L205.555 366.015C205.814 365.313 206.809 365.319 207.059 366.024L210.32 375.22L219.34 378.377C220.057 378.628 220.054 379.643 219.336 379.889L210.32 382.98L207.06 392.239C206.811 392.946 205.812 392.953 205.554 392.248L202.16 382.98L193.27 379.888C192.556 379.639 192.553 378.631 193.265 378.378L202.16 375.22Z" fill="url(#paint3_linear_292_4936)"/>
<rect width="144" height="5" rx="2.5" transform="matrix(-1 0 0 1 260 799)" fill="white"/>
</g>
<defs>
<filter id="filter0_f_292_4936" x="-265.547" y="162.304" width="691.042" height="895.084" filterUnits="userSpaceOnUse" color-interpolation-filters="sRGB">
<feFlood flood-opacity="0" result="BackgroundImageFix"/>
<feBlend mode="normal" in="SourceGraphic" in2="BackgroundImageFix" result="shape"/>
<feGaussianBlur stdDeviation="49.0741" result="effect1_foregroundBlur_292_4936"/>
</filter>
<linearGradient id="paint0_linear_292_4936" x1="187" y1="343" x2="187" y2="591.5" gradientUnits="userSpaceOnUse">
<stop stop-color="#101115" stop-opacity="0"/>
<stop offset="1" stop-color="#101115"/>
</linearGradient>
<linearGradient id="paint1_linear_292_4936" x1="280.5" y1="660" x2="90.5" y2="660" gradientUnits="userSpaceOnUse">
<stop stop-color="#B541FA"/>
<stop offset="0.5" stop-color="#8361FD"/>
<stop offset="1" stop-color="#76F6F5"/>
</linearGradient>
<linearGradient id="paint2_linear_292_4936" x1="135.12" y1="355.14" x2="239.44" y2="355.14" gradientUnits="userSpaceOnUse">
<stop stop-color="#76F6F5"/>
<stop offset="0.5" stop-color="#8361FD"/>
<stop offset="1" stop-color="#B541FA"/>
</linearGradient>
<linearGradient id="paint3_linear_292_4936" x1="136.64" y1="379.14" x2="239.52" y2="379.14" gradientUnits="userSpaceOnUse">
<stop stop-color="#76F6F5"/>
<stop offset="0.5" stop-color="#8361FD"/>
<stop offset="1" stop-color="#B541FA"/>
</linearGradient>
<clipPath id="clip0_292_4936">
<rect width="375" height="812" fill="white"/>
</clipPath>
<clipPath id="clip1_292_4936">
<rect width="376" height="606" fill="white" transform="translate(-1 206)"/>
</clipPath>
</defs>
</svg>
