<svg width="157" height="104" viewBox="0 0 157 104" fill="none" xmlns="http://www.w3.org/2000/svg">
<path d="M6.50006 77.1248L6.71404 75.8612C8.31602 66.4018 11.0017 57.1582 14.7181 48.3131L15.375 46.7496L17.1696 43.4711C20.2966 37.7582 24.0576 32.4159 28.3814 27.5455L30.6373 25.0045C32.0438 23.4201 33.5684 21.9447 35.198 20.5909L37.5608 18.628C39.7534 16.8064 42.2475 15.3819 44.9305 14.4188L47.1182 13.6334C49.4214 12.8067 51.8914 12.5532 54.3145 12.895L55.8053 13.1052C58.7356 13.5185 61.389 15.0587 63.2012 17.3981C65.704 20.6289 66.2791 24.9548 64.7073 28.7272L59.125 42.1248L58.219 45.3863C57.5841 47.6722 57.5575 50.0844 58.1421 52.3837L58.3454 53.1832C58.8544 55.1855 59.9272 56.9997 61.4365 58.4105C63.6292 60.4603 66.5762 61.5048 69.5703 61.2934L70.8549 61.2027C73.8676 60.99 76.7265 59.7914 78.9902 57.792L79.372 57.4548C81.7326 55.3697 83.3901 52.605 84.1167 49.5403L85.3215 44.4592C85.6899 42.9052 85.9405 41.3255 86.071 39.7336L86.5444 33.9582C86.9295 29.2605 87.9856 24.6422 89.6807 20.2441L91.0588 16.6687C91.518 15.4771 92.1142 14.343 92.8353 13.289L93.151 12.8276C95.3782 9.57234 98.79 7.31706 102.658 6.54349C103.633 6.34831 104.626 6.25002 105.621 6.25004L106.051 6.25004C111.463 6.25015 116.574 8.74046 119.909 13.0025C120.882 14.2454 121.683 15.6134 122.291 17.0699L127.375 29.2503L131.75 40.6253L135.75 50.6253L141 61.6249L145.25 68.8753L150.625 76.2502" stroke="url(#paint0_linear_216_3096)" stroke-width="12.5" stroke-linecap="round"/>
<path d="M102.5 73.3752L107.804 58.9928C108.209 57.8955 109.764 57.9053 110.155 59.0075L115.25 73.3752L129.344 78.3082C130.464 78.7002 130.459 80.2857 129.337 80.6705L115.25 85.5002L110.156 99.9673C109.767 101.073 108.206 101.083 107.803 99.9819L102.5 85.5002L88.6093 80.6687C87.494 80.2808 87.4889 78.7053 88.6017 78.3101L102.5 73.3752Z" fill="url(#paint1_linear_216_3096)"/>
<defs>
<linearGradient id="paint0_linear_216_3096" x1="-2.25003" y1="42.0002" x2="160.75" y2="42.0002" gradientUnits="userSpaceOnUse">
<stop stop-color="#76F6F5"/>
<stop offset="0.5" stop-color="#8361FD"/>
<stop offset="1" stop-color="#B541FA"/>
</linearGradient>
<linearGradient id="paint1_linear_216_3096" x1="0.125003" y1="79.5002" x2="160.875" y2="79.5002" gradientUnits="userSpaceOnUse">
<stop stop-color="#76F6F5"/>
<stop offset="0.5" stop-color="#8361FD"/>
<stop offset="1" stop-color="#B541FA"/>
</linearGradient>
</defs>
</svg>
